<svg width="13" height="13" xmlns="http://www.w3.org/2000/svg" xmlns:xlink="http://www.w3.org/1999/xlink"><defs><path d="M6.503 0H6.5A6.5 6.5 0 000 6.5 6.5 6.5 0 106.503 0z" id="a"/><path d="M1.5 6.733a.7.7 0 110 1.4.7.7 0 010-1.4zm0-.887a.603.603 0 01-.603-.603V.603a.603.603 0 011.206 0v4.64c0 .333-.27.603-.603.603z" id="c"/></defs><g fill="none" fill-rule="evenodd"><g><mask id="b" fill="#fff"><use xlink:href="#a"/></mask><g mask="url(#b)" fill="#D72F4B" fill-opacity=".3"><path d="M0 0h13v13H0z"/></g></g><g transform="translate(5 2)"><mask id="d" fill="#fff"><use xlink:href="#c"/></mask><g mask="url(#d)" fill="#D72F4B"><path d="M-3 0h9v9h-9z"/></g></g></g></svg>