<svg xmlns="http://www.w3.org/2000/svg" viewBox="0 0 230.88 127.05"><defs><style>.a{fill:#fff}</style></defs><path class="a" d="M227.2 46.53c-21.52-27.18-56.53-51.09-101.64-41.6C87 13 56.07 40.1 36.87 67.69a149.3 149.3 0 00-24.19 57.43c-.36 1.82-5.14-1.82-4.78-3.66 7-35.45 28.41-67.18 62.19-93.13C99 6.13 138.44-6.89 174.24 3.8c24.61 7.35 45.1 22 56.32 40.58 1.4 2.3-2.2 3.61-3.36 2.15z"/><path class="a" d="M11.31 126.82c2.92-2.15 5.31-5.26 7.77-7.9 3.52-3.77 7.46-7.14 10.92-10.92 1-1.13-.64-2.82-1.68-1.69-3.27 3.55-7 6.69-10.3 10.23-2.51 2.68-5 6-7.93 8.21-1.22.9 0 3 1.2 2.06z"/><path class="a" d="M11.61 124.84A73.27 73.27 0 003 104.63c-1.07-1.74-3.82-.15-2.74 1.6a70.3 70.3 0 018.3 19.45c.51 2 3.57 1.14 3.06-.84z"/></svg>