<svg xmlns="http://www.w3.org/2000/svg" viewBox="0 0 264.54 143.97"><defs><style>.a{fill:#fff}</style></defs><path class="a" d="M5.84 51C30.52 21.64 68.9-5.54 120.55 6c44.18 9.85 79.51 40.33 101.47 71.1 14.5 20.32 24.17 42.27 28.64 64.34.41 2 4.45 2.17 4 .13-7.92-39.1-32-79.19-70.67-108.51C151 8 105.81-7.31 64.82 3.55 36.62 11 13.15 26.6.27 46.73c-1.59 2.5 4.24 5.81 5.57 4.23z"/><path class="a" d="M253.53 140.92c-2.37-2.41-3.53-5.62-5.2-8.51a105.41 105.41 0 00-6-9.06c-3.41-4.7-6.73-10-11.89-13-2-1.13-3.8 1.94-1.8 3.08 5.86 3.32 10.07 10.65 13.76 16.16 3 4.45 4.86 10 8.63 13.82 1.61 1.64 4.13-.88 2.52-2.52z"/><path class="a" d="M254.71 142.08a73.8 73.8 0 019.53-21.14c1.26-1.93-1.82-3.72-3.07-1.8a77.12 77.12 0 00-9.9 22 1.79 1.79 0 003.44 1z"/></svg>