<svg width="32" height="32" xmlns="http://www.w3.org/2000/svg" xmlns:xlink="http://www.w3.org/1999/xlink"><defs><path d="M13.337 12l10.39 10.39a.941.941 0 01-.006 1.332.94.94 0 01-1.332.005L12 13.337 1.61 23.728a.94.94 0 01-1.331-.005.941.941 0 01-.005-1.332L10.664 12 .273 1.612A.941.941 0 01.279.28.94.94 0 011.61.275L12 10.664 22.39.274A.94.94 0 0123.72.28c.37.37.373.965.005 1.332l-10.39 10.39z" id="a"/></defs><use fill="#1F2229" xlink:href="#a" transform="translate(4 4)" fill-rule="evenodd"/></svg>