<svg xmlns="http://www.w3.org/2000/svg" viewBox="0 0 190.8 181.8"><defs><style>.d{fill:none;stroke-miterlimit:10;stroke:#21232c;stroke-width:3.6px}</style></defs><path fill="#fff" d="M0 0h190.8v181.8H0z"/><path d="M14.67 109c0-3.84.1-7.68.11-11.53V36.29c0-10.34 6.2-16.53 16.49-16.57 5.81 0 11.62-.09 17.43-.13 7.52 0 15 .1 22.57.13 9.82 0 16 6.29 16 16.17V131c0 9.88-6.23 16.12-16.08 16.13H30.67c-9.46 0-15.82-6.35-15.89-15.83-.06-7.48-.08-14.91-.11-22.3z" stroke-width="4.82" stroke="#21232c" fill="none" stroke-miterlimit="10"/><path d="M51.27 125.57a6 6 0 11-5.93 6 6 6 0 015.93-6z" fill="#21232c"/><path class="d" d="M122.54 93.65v.95c0 17.3 9.26 31.32 20.69 31.32s20.68-14 20.68-31.32v-.95zM132.43 82.07v11.58M152.29 82.89v11.59"/><path d="M143 125.4V152c0 9.58-9.15 17.42-20.33 17.42H72.51c-11.18 0-20.33-7.84-20.33-17.42v-3.22" stroke="#000" stroke-width="3.59" fill="none" stroke-miterlimit="10"/><path d="M134.6 49.81l-3.13-24.38L141.14 44l12.15-13.86-4.3 16.42 27.14-7.93-21.23 16 4.08 3.57-7.65.5 8.55 13.27-14.57-11.34.08 13.06-5.49-13.47-17.05 9.57 12.26-12.33-18.97-7.97 18.46.32zM65.37 42.6H49.75L39.29 80.84l16.85-5.59-13.96 33.02L68.2 65.04 52.01 69.2l13.36-26.6z"/></svg>