<svg xmlns="http://www.w3.org/2000/svg" viewBox="0 0 190.8 181.8"><defs><style>.a{fill:#fff;}.b{fill:none;stroke:#21232c;stroke-miterlimit:10;stroke-width:4.82px;}.c{fill:#21232c;}</style></defs><title>icon-water</title><rect class="a" width="190.8" height="181.8"/><path class="b" d="M73.1,128.34c0-3.85.11-7.69.11-11.53q0-30.6,0-61.19c0-10.33,6.2-16.53,16.49-16.57,5.81,0,11.62-.08,17.43-.13q11.28.07,22.56.13c9.83.05,16.05,6.29,16.05,16.17q0,47.55,0,95.12c0,9.88-6.22,16.11-16.07,16.12H89.1c-9.45,0-15.82-6.35-15.89-15.83C73.16,143.2,73.14,135.77,73.1,128.34Z"/><path class="c" d="M109.7,145a6,6,0,1,1-5.92,6A6,6,0,0,1,109.7,145Z"/><path d="M68.37,15.33h0C64.63,19.11,45,64.91,45,70.36c0,11.8,10.67,21.37,23.83,21.37S92.7,82.16,92.7,70.36C92.7,64.69,72.38,19.16,68.37,15.33Z"/></svg>