<svg xmlns="http://www.w3.org/2000/svg" viewBox="0 0 190.8 181.8"><defs><style>.b{fill:none;stroke:#21232c;stroke-miterlimit:10;stroke-width:4.82px}</style></defs><path fill="#fff" d="M0 0h190.8v181.8H0z"/><path class="b" d="M58.57 116.54c0-3.84.11-7.68.11-11.53V43.83c0-10.34 6.2-16.53 16.49-16.58 5.81 0 11.62-.08 17.43-.12l22.56.13c9.83 0 16 6.28 16.06 16.16v95.12c0 9.88-6.22 16.12-16.07 16.12H74.58c-9.46 0-15.82-6.35-15.89-15.82-.06-7.43-.08-14.84-.12-22.3z"/><path d="M95.18 133.16a6 6 0 11-5.93 6 6 6 0 015.93-6z" fill="#21232c"/><path class="b" d="M58.35 62.57l25.8 28.5 27 16.2 19.8 22.5"/><path stroke-width="5.18" fill="none" stroke="#21232c" stroke-miterlimit="10" d="M132.75 53.27L110.14 66.6l-7.86 20.95-8.85 7.62-35.38 23.8"/><path class="b" d="M106.2 78.02L88.65 49.67l12-21.9"/></svg>