<svg xmlns="http://www.w3.org/2000/svg" viewBox="0 0 190.8 181.8"><path fill="#fff" d="M0 0h190.8v181.8H0z"/><path d="M73.1 128.34c0-3.85.11-7.69.11-11.53V55.62c0-10.33 6.2-16.53 16.49-16.57 5.81 0 11.62-.08 17.43-.13q11.28.07 22.56.13c9.83.05 16.05 6.29 16.05 16.17v95.12c0 9.88-6.22 16.11-16.07 16.12H89.1c-9.45 0-15.82-6.35-15.89-15.83-.05-7.43-.07-14.86-.11-22.29z" fill="none" stroke="#21232c" stroke-miterlimit="10" stroke-width="4.82"/><path d="M109.7 145a6 6 0 11-5.92 6 6 6 0 015.92-6z" fill="#21232c"/><path d="M68.37 15.33C64.63 19.11 45 64.91 45 70.36c0 11.8 10.67 21.37 23.83 21.37S92.7 82.16 92.7 70.36c0-5.67-20.32-51.2-24.33-55.03z"/></svg>