<svg xmlns="http://www.w3.org/2000/svg" viewBox="0 0 190.8 181.8"><defs><style>.a{fill:#fff;}.b,.d,.e{fill:none;stroke-miterlimit:10;}.b,.d{stroke:#21232c;}.b{stroke-width:4.82px;}.c{fill:#21232c;}.d{stroke-width:3.6px;}.e{stroke:#000;stroke-width:3.59px;}</style></defs><title>icon-electricity</title><rect class="a" width="190.8" height="181.8"/><path class="b" d="M14.67,109c0-3.84.1-7.68.11-11.53q0-30.58,0-61.18c0-10.34,6.2-16.53,16.49-16.57,5.81,0,11.62-.09,17.43-.13,7.52,0,15,.1,22.57.13,9.82,0,16,6.29,16,16.17V131c0,9.88-6.23,16.12-16.08,16.13H30.67c-9.46,0-15.82-6.35-15.89-15.83C14.72,123.82,14.7,116.39,14.67,109Z"/><path class="c" d="M51.27,125.57a6,6,0,1,1-5.93,6A6,6,0,0,1,51.27,125.57Z"/><path class="d" d="M122.54,93.65c0,.32,0,.63,0,.95,0,17.3,9.26,31.32,20.69,31.32s20.68-14,20.68-31.32c0-.32,0-.63,0-.95Z"/><line class="d" x1="132.43" y1="82.07" x2="132.43" y2="93.65"/><line class="d" x1="152.29" y1="82.89" x2="152.29" y2="94.48"/><path class="e" d="M143,125.4V152c0,9.58-9.15,17.42-20.33,17.42H72.51c-11.18,0-20.33-7.84-20.33-17.42v-3.22"/><polygon points="134.6 49.81 131.47 25.43 141.14 44 153.29 30.14 148.99 46.56 176.13 38.63 154.9 54.63 158.98 58.2 151.33 58.7 159.88 71.97 145.31 60.63 145.39 73.69 139.9 60.22 122.85 69.79 135.11 57.46 116.14 49.49 134.6 49.81"/><polygon points="65.37 42.6 49.75 42.6 39.29 80.84 56.14 75.25 42.18 108.27 68.2 65.04 52.01 69.2 65.37 42.6"/></svg>