<svg xmlns="http://www.w3.org/2000/svg" viewBox="0 0 310.85 233.59"><defs><style>.a{fill:#ff59a3;}.b{fill:#8f9399;}.c,.g{fill:#fff;}.d,.e{fill:#2f333b;}.e{stroke:#595c62;stroke-width:1.62px;}.e,.h{stroke-miterlimit:10;}.f{fill:#1f2229;}.g{opacity:0.18;}.h,.i{fill:none;}.h{stroke:#01cbfd;stroke-width:8.1px;}.i{stroke:#fff;stroke-linecap:round;stroke-linejoin:round;stroke-width:2.7px;}</style></defs><title>step-3</title><circle class="a" cx="96.98" cy="89.55" r="89.04"/><circle class="b" cx="241.86" cy="179.41" r="51.24"/><rect class="c" x="120.01" y="9.75" width="114.53" height="214.09" rx="13.29" transform="translate(-31.75 79.72) rotate(-23.32)"/><path class="d" d="M250,191.49l-68.79,29.65a13.28,13.28,0,0,1-17.46-6.94L95.91,56.81a13.28,13.28,0,0,1,6.94-17.46L171.64,9.7a13.28,13.28,0,0,1,17.46,6.94L256.94,174A13.28,13.28,0,0,1,250,191.49Z"/><path class="d" d="M248.07,187l-68.79,29.65c-6.74,2.9-14.43.1-17.17-6.27L98,61.72c-2.74-6.37.5-13.88,7.24-16.79L174,15.28c6.74-2.9,14.43-.1,17.18,6.27l64.09,148.68C258.05,176.59,254.81,184.11,248.07,187Z"/><path class="c" d="M162.77,24.73l-40.84,17.6a5.14,5.14,0,0,1-6.76-2.69l-2.33-5.09,50.28-22L165.46,18A5.14,5.14,0,0,1,162.77,24.73Z"/><path class="d" d="M126.16,36.85a2.67,2.67,0,1,1,2.45-3.72h0a2.67,2.67,0,0,1-2.45,3.72Zm0-4.59a1.85,1.85,0,0,0-.76.16,1.92,1.92,0,1,0,2.52,1h0A1.92,1.92,0,0,0,126.16,32.26Z"/><path class="d" d="M134.19,32.68a2.09,2.09,0,0,1-1.92-1.26,2.08,2.08,0,0,1,1.09-2.75l19.55-8.43a2.07,2.07,0,0,1,1.6,0,2.09,2.09,0,0,1,.06,3.86L135,32.51A2,2,0,0,1,134.19,32.68Zm19.54-11.86a1.35,1.35,0,0,0-.52.11l-19.56,8.43a1.34,1.34,0,0,0-.7,1.76,1.36,1.36,0,0,0,1.77.71l19.55-8.43a1.35,1.35,0,0,0,.7-1.77,1.29,1.29,0,0,0-.74-.71A1.24,1.24,0,0,0,153.73,20.82Z"/><rect class="e" x="129.53" y="85.87" width="79.55" height="20.18" transform="translate(-24.23 75.53) rotate(-23.52)"/><rect class="f" x="145.03" y="123.3" width="81.28" height="22.18" rx="10.42" transform="translate(-38.2 85.25) rotate(-23.52)"/><polygon class="g" points="189.31 17.08 115.12 101.34 124.04 122.03 196.16 32.96 189.31 17.08"/><path class="h" d="M234.72,40.92c24.4-22.5,43.65,21.53,73.34-6.55"/><polyline class="i" points="23.83 156.55 35.94 178.24 63.85 145.03"/><circle class="i" cx="41.61" cy="161.64" r="40.27"/></svg>