<svg xmlns="http://www.w3.org/2000/svg" viewBox="0 0 308.67 305.02"><defs><style>.a{fill:#fff;}.b{font-size:21.12px;font-family:Tele2TextSansWebSHORT-Regular, Tele2 TextSans Web SHORT;}.c{fill:#01cbfd;}.d{fill:#1f2229;}.e{fill:none;stroke:#fff;stroke-miterlimit:10;stroke-width:2.87px;}</style></defs><title>step-2</title><path class="a" d="M235.47,0c-27.14-.45-49.37,13.28-49.66,30.65-.1,5.95,2.39,11.56,6.8,16.38L177.92,57.53,206.78,57a69.7,69.7,0,0,0,27.66,6c27.14.45,49.38-13.28,49.66-30.65S262.62.46,235.47,0Z"/><text class="b" transform="translate(215.36 39.89) rotate(0.94)">SMS</text><circle class="c" cx="147.18" cy="216.35" r="88.67"/><rect class="a" x="20.48" y="67.68" width="147.38" height="167.94" rx="7.52" transform="translate(51.77 -21.75) rotate(18.1)"/><path class="d" d="M70.1,98.92,58.37,95.09A3.27,3.27,0,0,1,56.28,91l3.83-11.74a3.27,3.27,0,0,1,4.12-2.09L76,81a3.27,3.27,0,0,1,2.09,4.12L74.22,96.83A3.27,3.27,0,0,1,70.1,98.92ZM63.64,79a1.38,1.38,0,0,0-1.72.87L58.09,91.56A1.37,1.37,0,0,0,59,93.28l11.73,3.83a1.37,1.37,0,0,0,1.72-.87L76.25,84.5a1.36,1.36,0,0,0-.87-1.71Z"/><polygon class="d" points="65.38 94.37 62.16 82.89 65.09 82.06 66.82 88.23 78.96 74.8 81.22 76.84 65.38 94.37"/><path class="d" d="M59.72,130.68,48,126.85a3.27,3.27,0,0,1-2.09-4.12L49.73,111a3.27,3.27,0,0,1,4.12-2.09l11.74,3.84a3.27,3.27,0,0,1,2.09,4.12l-3.84,11.73A3.27,3.27,0,0,1,59.72,130.68Zm-6.46-20a1.38,1.38,0,0,0-1.72.87l-3.83,11.74a1.36,1.36,0,0,0,.87,1.72l11.73,3.83A1.37,1.37,0,0,0,62,128l3.84-11.74a1.36,1.36,0,0,0-.87-1.71Z"/><polygon class="d" points="55 126.13 51.77 114.65 54.71 113.82 56.44 119.99 68.58 106.56 70.84 108.6 55 126.13"/><path class="d" d="M49.34,162.44l-11.73-3.83a3.27,3.27,0,0,1-2.09-4.12l3.83-11.74a3.27,3.27,0,0,1,4.12-2.09l11.74,3.84a3.27,3.27,0,0,1,2.09,4.12l-3.84,11.73A3.27,3.27,0,0,1,49.34,162.44Zm-6.46-20a1.38,1.38,0,0,0-1.72.87l-3.83,11.74a1.36,1.36,0,0,0,.87,1.72l11.73,3.83a1.37,1.37,0,0,0,1.72-.87L55.49,148a1.36,1.36,0,0,0-.87-1.71Z"/><polygon class="d" points="44.62 157.89 41.39 146.41 44.33 145.58 46.06 151.75 58.2 138.32 60.46 140.36 44.62 157.89"/><path class="d" d="M39,194.2l-11.73-3.83a3.26,3.26,0,0,1-2.09-4.12L29,174.51a3.27,3.27,0,0,1,4.12-2.09l11.74,3.84a3.27,3.27,0,0,1,2.09,4.12l-3.84,11.73A3.27,3.27,0,0,1,39,194.2Zm-6.46-20a1.38,1.38,0,0,0-1.72.87L27,186.84a1.36,1.36,0,0,0,.87,1.72l11.73,3.83a1.37,1.37,0,0,0,1.72-.87l3.84-11.74a1.36,1.36,0,0,0-.87-1.71Z"/><rect class="d" x="50.84" y="201.84" width="71.91" height="5.05" transform="translate(67.78 -16.85) rotate(18.1)"/><rect class="d" x="54.28" y="188.7" width="39.26" height="5.05" transform="translate(63.07 -13.5) rotate(18.1)"/><rect class="d" x="61.22" y="170.08" width="71.91" height="5.05" transform="translate(58.43 -21.65) rotate(18.1)"/><rect class="d" x="64.66" y="156.94" width="39.26" height="5.05" transform="translate(53.71 -18.3) rotate(18.1)"/><rect class="d" x="71.6" y="138.32" width="71.91" height="5.05" transform="translate(49.08 -26.44) rotate(18.1)"/><rect class="d" x="75.04" y="125.18" width="39.26" height="5.05" transform="translate(44.36 -23.09) rotate(18.1)"/><rect class="d" x="81.98" y="106.56" width="71.91" height="5.05" transform="translate(39.72 -31.24) rotate(18.1)"/><rect class="d" x="85.42" y="93.42" width="39.26" height="5.05" transform="translate(35.01 -27.89) rotate(18.1)"/><path class="e" d="M173.78,267.91a4.13,4.13,0,0,1-1.11-.15.87.87,0,0,1-.6-.86c.09-.54.88-.91.69-1.42s-.87-.32-1.31-.55a.92.92,0,0,1-.45-.76l-3.43,4.51a.49.49,0,0,0,.39.78l6.88-.07a2,2,0,0,0,.39-.67C175.44,268,174.28,268,173.78,267.91Z"/><path class="e" d="M184.06,248.16l-13.06,16a.92.92,0,0,0,.45.76c.44.23,1.14.09,1.31.55s-.6.88-.69,1.42a.87.87,0,0,0,.6.86,4.13,4.13,0,0,0,1.11.15c.5,0,1.66.06,1.45.81a2,2,0,0,1-.39.67l19.44-.9Z"/><polygon class="e" points="184.1 256.31 184.06 248.16 278.34 200.76 281.62 207.29 184.1 256.31"/><polygon class="e" points="187.8 263.69 188.54 258.63 184.04 256.2 281.56 207.17 285.33 214.66 187.8 263.69"/><polygon class="e" points="194.28 268.49 187.8 263.69 285.33 214.66 288.56 221.09 194.28 268.49"/><path class="e" d="M300.83,194.83a4.81,4.81,0,0,0-6.45-2.13l-8.91,4.48,3.34,6.64,13.2-6.64Z"/><path class="e" d="M306.72,206.56l-1-2-13.2,6.64,3.18,6.32,8.91-4.47A4.8,4.8,0,0,0,306.72,206.56Z"/><rect class="e" x="289.86" y="200.06" width="14.77" height="8.21" transform="translate(-60.03 155.27) rotate(-26.69)"/><polygon class="e" points="288.78 203.76 281.62 207.29 285.35 214.7 292.49 211.14 288.78 203.76"/><polygon class="e" points="285.47 197.18 278.34 200.76 281.62 207.29 288.78 203.76 285.47 197.18"/><polygon class="e" points="295.68 217.49 292.49 211.14 285.35 214.7 288.55 221.07 295.68 217.49"/></svg>