<?xml version="1.0" encoding="UTF-8"?>
<svg width="61px" height="34px" viewBox="0 0 61 34" version="1.1" xmlns="http://www.w3.org/2000/svg" xmlns:xlink="http://www.w3.org/1999/xlink">
    <!-- Generator: Sketch 49.1 (51147) - http://www.bohemiancoding.com/sketch -->
    <title>chevron</title>
    <desc>Created with Sketch.</desc>
    <defs>
        <path d="M59.287907,1.73923766 C58.8391088,1.28670434 58.2167754,1.00699279 57.5306129,1.00699279 C56.8514318,1.00699279 56.2360797,1.28071052 55.7882788,1.72425311 L30.5049866,26.9921955 L5.22169445,1.72425311 C4.7758883,1.27671464 4.15854153,1 3.4773657,1 C2.78920856,1 2.16587782,1.28270846 1.71907434,1.73923766 C1.27426553,2.19177099 1,2.81213124 1,3.49742453 C1,4.18971061 1.2802495,4.81706365 1.73403428,5.27059595 L28.7526793,32.2817407 C29.2004801,32.7252833 29.8168295,33 30.4960107,33 C31.1751919,33 31.7925386,32.7252833 32.2403394,32.2817407 L59.2589844,5.27059595 C59.7167585,4.81606468 60,4.1867137 60,3.49043174 C60,2.80913433 59.7287265,2.19177099 59.287907,1.73923766 L59.287907,1.73923766 Z" id="path-1"></path>
    </defs>
    <g id="chevron" stroke="none" stroke-width="1" fill="none" fill-rule="evenodd">
        <mask id="mask-2" fill="white">
            <use xlink:href="#path-1"></use>
        </mask>
        <use id="Mask" fill="#1F2229" fill-rule="nonzero" xlink:href="#path-1"></use>
    </g>
</svg>