<svg xmlns="http://www.w3.org/2000/svg" viewBox="0 0 190.8 181.8"><defs><style>.a{fill:#fff;}.b{fill:#21232c;}.c{fill:none;stroke:#21232c;stroke-miterlimit:10;stroke-width:4.82px;}</style></defs><title>icon-broke</title><rect class="a" width="190.8" height="181.8"/><path class="b" d="M101.92,141.64a6,6,0,1,1-5.92,6A6,6,0,0,1,101.92,141.64Z"/><path class="c" d="M113.05,79.27l15.81-17.86q-2-14.38-4-28.79c-1.37-9.78-8.39-15.1-18.13-13.78q-11.17,1.52-22.36,3c-5.75.85-11.5,1.72-17.25,2.54-10.18,1.47-15.46,8.46-14,18.7q3.07,22.08,6.17,44.16L85.07,74.1Z"/><path class="c" d="M119.84,96.47l-27-9L65.43,96.9v16.6c0,3.84-.07,7.69-.11,11.53,0,7.43.06,14.86.11,22.29.07,9.48,6.44,15.82,15.89,15.83h40.57c9.86,0,16.08-6.24,16.08-16.12q0-33,0-66Z"/></svg>