<svg xmlns="http://www.w3.org/2000/svg" viewBox="0 0 310.85 233.59"><circle cx="96.98" cy="89.55" r="89.04" fill="#ff59a3"/><circle cx="241.86" cy="179.41" r="51.24" fill="#8f9399"/><rect x="120.01" y="9.75" width="114.53" height="214.09" rx="13.29" transform="rotate(-23.32 177.28 116.788)" fill="#fff"/><path d="M250 191.49l-68.79 29.65a13.28 13.28 0 01-17.46-6.94L95.91 56.81a13.28 13.28 0 016.94-17.46L171.64 9.7a13.28 13.28 0 0117.46 6.94L256.94 174a13.28 13.28 0 01-6.94 17.49z" fill="#2f333b"/><path d="M248.07 187l-68.79 29.65c-6.74 2.9-14.43.1-17.17-6.27L98 61.72c-2.74-6.37.5-13.88 7.24-16.79L174 15.28c6.74-2.9 14.43-.1 17.18 6.27l64.09 148.68c2.78 6.36-.46 13.88-7.2 16.77z" fill="#2f333b"/><path d="M162.77 24.73l-40.84 17.6a5.14 5.14 0 01-6.76-2.69l-2.33-5.09 50.28-22 2.34 5.45a5.14 5.14 0 01-2.69 6.73z" fill="#fff"/><path d="M126.16 36.85a2.67 2.67 0 112.45-3.72 2.67 2.67 0 01-2.45 3.72zm0-4.59a1.85 1.85 0 00-.76.16 1.92 1.92 0 102.52 1 1.92 1.92 0 00-1.76-1.16zM134.19 32.68a2.09 2.09 0 01-1.92-1.26 2.08 2.08 0 011.09-2.75l19.55-8.43a2.07 2.07 0 011.6 0 2.09 2.09 0 01.06 3.86L135 32.51a2 2 0 01-.81.17zm19.54-11.86a1.35 1.35 0 00-.52.11l-19.56 8.43a1.34 1.34 0 00-.7 1.76 1.36 1.36 0 001.77.71l19.55-8.43a1.35 1.35 0 00.7-1.77 1.29 1.29 0 00-.74-.71 1.24 1.24 0 00-.5-.1z" fill="#2f333b"/><path fill="#2f333b" stroke="#595c62" stroke-miterlimit="10" stroke-width="1.62" d="M128.807 102.575l72.94-31.746 8.054 18.503-72.941 31.746z"/><rect x="145.03" y="123.3" width="81.28" height="22.18" rx="10.42" transform="rotate(-23.52 185.648 134.371)" fill="#1f2229"/><path fill="#fff" opacity=".18" d="M189.31 17.08l-74.19 84.26 8.92 20.69 72.12-89.07-6.85-15.88z"/><path d="M234.72 40.92c24.4-22.5 43.65 21.53 73.34-6.55" fill="none" stroke="#01cbfd" stroke-miterlimit="10" stroke-width="8.1"/><g fill="none" stroke-linecap="round" stroke-linejoin="round"><path d="M23.83 156.55l12.11 21.69 27.91-33.21"/><circle cx="41.61" cy="161.64" r="40.27"/></g></svg>