<svg xmlns="http://www.w3.org/2000/svg" viewBox="0 0 308.67 305.02"><g data-name="Layer 2"><g data-name="Layer 4"><path d="M235.47 0c-27.14-.45-49.37 13.28-49.66 30.65-.1 5.95 2.39 11.56 6.8 16.38l-14.69 10.5 28.86-.53a69.7 69.7 0 0027.66 6c27.14.45 49.38-13.28 49.66-30.65S262.62.46 235.47 0z" fill="#fff"/><path d="M216 39.11v-2.2a7.1 7.1 0 002.16 1 8.13 8.13 0 002 .32 5.49 5.49 0 001.08-.09 2 2 0 00.88-.37 2.09 2.09 0 00.6-.74 3.07 3.07 0 00.23-1.19 2.05 2.05 0 00-.24-1.08 2.68 2.68 0 00-.68-.79 5.26 5.26 0 00-1-.63c-.37-.19-.78-.39-1.22-.58a16.34 16.34 0 01-1.44-.8 5.37 5.37 0 01-1.14-1 4.14 4.14 0 01-.75-1.27 4.74 4.74 0 01-.26-1.73 4.06 4.06 0 01.48-2 3.7 3.7 0 011.3-1.21 4.72 4.72 0 011.63-.67 8.23 8.23 0 011.85-.18 13 13 0 011.91.17 3.81 3.81 0 011.41.46v2a4.46 4.46 0 00-1.41-.56 8.19 8.19 0 00-1.83-.22 4.45 4.45 0 00-1 .09 2.7 2.7 0 00-.95.35 2 2 0 00-.7.7 2.29 2.29 0 00-.28 1.14 2.14 2.14 0 00.21 1.05 2.77 2.77 0 00.6.77 5.26 5.26 0 00.88.61c.33.19.68.37 1 .55.54.26 1 .53 1.54.81a5.75 5.75 0 011.28 1 3.93 3.93 0 01.86 1.28 4.24 4.24 0 01.3 1.76 4.87 4.87 0 01-.31 1.68 3.63 3.63 0 01-.88 1.37 4 4 0 01-1.52.92 6.52 6.52 0 01-2.24.31h-1c-.4 0-.73-.08-1.11-.15a8.23 8.23 0 01-1.15-.32 5.81 5.81 0 01-1.09-.56zM227.66 40.05l.26-15.83h2.8l3.94 12.68h.11l4.32-12.54h2.73l-.26 15.84h-2.13l.21-12.65h-.08l-4.25 12.57h-1.65l-3.85-12.72h-.12l-.21 12.65zM244 39.57v-2.21a6.91 6.91 0 002.16 1 8.27 8.27 0 002 .32 5.37 5.37 0 001.08-.09 2 2 0 00.89-.37 2 2 0 00.59-.74 2.74 2.74 0 00.23-1.19 2.05 2.05 0 00-.24-1.08 2.43 2.43 0 00-.68-.79 5.51 5.51 0 00-1-.63l-1.22-.59a12.23 12.23 0 01-1.44-.79 5.19 5.19 0 01-1.15-1 4.14 4.14 0 01-.75-1.27 4.74 4.74 0 01-.26-1.73 4.26 4.26 0 01.48-2 3.7 3.7 0 011.31-1.2 4.69 4.69 0 011.64-.67 8.12 8.12 0 011.85-.18 13 13 0 011.9.17 3.94 3.94 0 011.42.46v2a4.37 4.37 0 00-1.41-.56 8.17 8.17 0 00-1.82-.22 4.53 4.53 0 00-1 .09 2.78 2.78 0 00-1 .35 2 2 0 00-.7.7 2.29 2.29 0 00-.28 1.14 2.26 2.26 0 00.22 1.05 2.77 2.77 0 00.6.77 4.79 4.79 0 00.87.61c.34.19.69.37 1.05.55q.8.39 1.53.81a5.75 5.75 0 011.28 1 3.93 3.93 0 01.87 1.28 4.24 4.24 0 01.3 1.76A5.11 5.11 0 01253 38a3.88 3.88 0 01-.88 1.37 4.1 4.1 0 01-1.52.92 6.58 6.58 0 01-2.25.31c-.28 0-.6 0-1-.05s-.72-.08-1.11-.15a8.23 8.23 0 01-1.15-.32 6.12 6.12 0 01-1.09-.51z"/><circle cx="147.18" cy="216.35" r="88.67" fill="#01cbfd"/><path d="M173.78 267.91a4.13 4.13 0 01-1.11-.15.87.87 0 01-.6-.86c.09-.54.88-.91.69-1.42s-.87-.32-1.31-.55a.92.92 0 01-.45-.76l-3.43 4.51a.49.49 0 00.39.78l6.88-.07a2 2 0 00.39-.67c.21-.72-.95-.72-1.45-.81z" fill="none" stroke="#fff" stroke-miterlimit="10" stroke-width="2.87"/><path d="M184.06 248.16l-13.06 16a.92.92 0 00.45.76c.44.23 1.14.09 1.31.55s-.6.88-.69 1.42a.87.87 0 00.6.86 4.13 4.13 0 001.11.15c.5 0 1.66.06 1.45.81a2 2 0 01-.39.67l19.44-.9z" fill="none" stroke="#fff" stroke-miterlimit="10" stroke-width="2.87"/><path fill="none" stroke="#fff" stroke-miterlimit="10" stroke-width="2.87" d="M184.1 256.31l-.04-8.15 94.28-47.4 3.28 6.53-97.52 49.02z"/><path fill="none" stroke="#fff" stroke-miterlimit="10" stroke-width="2.87" d="M187.8 263.69l.74-5.06-4.5-2.43 97.52-49.03 3.77 7.49-97.53 49.03zM194.28 268.49l-6.48-4.8 97.53-49.03 3.23 6.43-94.28 47.4zM300.83 194.83a4.81 4.81 0 00-6.45-2.13l-8.91 4.48 3.34 6.64 13.2-6.64zM306.72 206.56l-1-2-13.2 6.64 3.18 6.32 8.91-4.47a4.8 4.8 0 002.11-6.49z"/><path fill="none" stroke="#fff" stroke-miterlimit="10" stroke-width="2.87" d="M288.805 203.82L302 197.184l3.688 7.335-13.196 6.634z"/><path fill="none" stroke="#fff" stroke-miterlimit="10" stroke-width="2.87" d="M288.78 203.76l-7.16 3.53 3.73 7.41 7.14-3.56-3.71-7.38z"/><path fill="none" stroke="#fff" stroke-miterlimit="10" stroke-width="2.87" d="M285.47 197.18l-7.13 3.58 3.28 6.53 7.16-3.53-3.31-6.58zM295.68 217.49l-3.19-6.35-7.14 3.56 3.2 6.37 7.13-3.58z"/><rect x="20.48" y="67.68" width="147.38" height="167.94" rx="7.52" transform="rotate(18.1 94.161 151.638)" fill="#fff"/><g fill="#1f2229"><path d="M53.397 190.797l68.352 22.34-1.569 4.8-68.352-22.34zM56.04 182.726l37.317 12.197-1.57 4.8-37.317-12.197zM63.78 159.033l68.352 22.341-1.569 4.8-68.351-22.34zM66.486 150.838l37.297 12.17-1.566 4.798-37.297-12.17zM74.22 127.16l68.315 22.292-1.565 4.798-68.315-22.292zM76.796 119.209l37.317 12.197-1.568 4.8-37.318-12.197zM84.538 95.516l68.351 22.341-1.569 4.8-68.351-22.34zM87.18 87.445l37.317 12.197-1.569 4.8-37.317-12.197z"/></g></g></g></svg>