<?xml version="1.0" encoding="UTF-8"?>
<svg width="32px" height="32px" viewBox="0 0 32 32" version="1.1" xmlns="http://www.w3.org/2000/svg" xmlns:xlink="http://www.w3.org/1999/xlink">
    <!-- Generator: Sketch 49.1 (51147) - http://www.bohemiancoding.com/sketch -->
    <title>close</title>
    <desc>Created with Sketch.</desc>
    <defs>
        <path d="M13.3368815,12.0006581 L23.7260676,22.3898442 C24.0935012,22.7572778 24.0906354,23.3529542 23.7214657,23.7221239 C23.3497223,24.0938673 22.7558142,24.0933538 22.3891861,23.7267258 L12,13.3375397 L1.61081391,23.7267258 C1.24418582,24.0933538 0.650277685,24.0938673 0.27853426,23.7221239 C-0.090635382,23.3529542 -0.0935012347,22.7572778 0.273932371,22.3898442 L10.6631185,12.0006581 L0.273932371,1.61147203 C-0.0935012347,1.24403842 -0.090635382,0.648362026 0.27853426,0.279192384 C0.650277685,-0.0925510404 1.24418582,-0.0920375933 1.61081391,0.274590496 L12,10.6637766 L22.3891861,0.274590496 C22.7558142,-0.0920375933 23.3497223,-0.0925510404 23.7214657,0.279192384 C24.0906354,0.648362026 24.0935012,1.24403842 23.7260676,1.61147203 L13.3368815,12.0006581 Z" id="path-1"></path>
    </defs>
    <g id="close" stroke="none" stroke-width="1" fill="none" fill-rule="evenodd">
        <g transform="translate(4.000000, 4.000000)">
            <mask id="mask-2" fill="white">
                <use xlink:href="#path-1"></use>
            </mask>
            <use id="Mask" fill="#1F2229" xlink:href="#path-1"></use>
        </g>
    </g>
</svg>