<svg xmlns="http://www.w3.org/2000/svg" viewBox="0 0 190.8 181.8"><defs>
<style>.a{fill:#fff;}.b,.d{fill:none;stroke:#21232c;stroke-miterlimit:10;}.b{stroke-width:4.82px;}.c{fill:#21232c;}.d{stroke-width:5.18px;}</style></defs><title>icon-screen</title><rect class="a" width="190.8" height="181.8"/><path class="b" d="M58.57,116.54c0-3.84.11-7.68.11-11.53q0-30.58,0-61.18c0-10.34,6.2-16.53,16.49-16.58,5.81,0,11.62-.08,17.43-.12l22.56.13c9.83,0,16,6.28,16.06,16.16q0,47.56,0,95.12c0,9.88-6.22,16.12-16.07,16.12q-20.3,0-40.57,0c-9.46,0-15.82-6.35-15.89-15.82C58.63,131.41,58.61,124,58.57,116.54Z"/>
<path class="c" d="M95.18,133.16a6,6,0,1,1-5.93,6A6,6,0,0,1,95.18,133.16Z"/><polyline class="b" points="58.35 62.57 84.15 91.07 111.15 107.27 130.95 129.77"/><polyline class="d" points="132.75 53.27 110.14 66.6 102.28 87.55 93.43 95.17 58.05 118.97"/><polyline class="b" points="106.2 78.02 88.65 49.67 100.65 27.77"/></svg>