<svg xmlns="http://www.w3.org/2000/svg" viewBox="0 0 308.67 305.02"><title>step-2</title><g id="Layer_2" data-name="Layer 2"><g id="Layer_4" data-name="Layer 4"><g id="step-2"><g id="message"><path d="M235.47,0c-27.14-.45-49.37,13.28-49.66,30.65-.1,5.95,2.39,11.56,6.8,16.38L177.92,57.53,206.78,57a69.7,69.7,0,0,0,27.66,6c27.14.45,49.38-13.28,49.66-30.65S262.62.46,235.47,0Z" fill="#fff"/><g id="sms"><path d="M216,39.11l0-2.2a7.1,7.1,0,0,0,2.16,1,8.13,8.13,0,0,0,2,.32,5.49,5.49,0,0,0,1.08-.09,2,2,0,0,0,.88-.37,2.09,2.09,0,0,0,.6-.74,3.07,3.07,0,0,0,.23-1.19,2.05,2.05,0,0,0-.24-1.08,2.68,2.68,0,0,0-.68-.79,5.26,5.26,0,0,0-1-.63c-.37-.19-.78-.39-1.22-.58a16.34,16.34,0,0,1-1.44-.8,5.37,5.37,0,0,1-1.14-1,4.14,4.14,0,0,1-.75-1.27,4.74,4.74,0,0,1-.26-1.73,4.06,4.06,0,0,1,.48-2A3.7,3.7,0,0,1,218,24.75a4.72,4.72,0,0,1,1.63-.67,8.23,8.23,0,0,1,1.85-.18,13,13,0,0,1,1.91.17,3.81,3.81,0,0,1,1.41.46l0,2a4.46,4.46,0,0,0-1.41-.56,8.19,8.19,0,0,0-1.83-.22,4.45,4.45,0,0,0-1,.09,2.7,2.7,0,0,0-.95.35,2,2,0,0,0-.7.7,2.29,2.29,0,0,0-.28,1.14,2.14,2.14,0,0,0,.21,1.05,2.77,2.77,0,0,0,.6.77,5.26,5.26,0,0,0,.88.61c.33.19.68.37,1,.55.54.26,1,.53,1.54.81a5.75,5.75,0,0,1,1.28,1A3.93,3.93,0,0,1,225,34.1a4.24,4.24,0,0,1,.3,1.76,4.87,4.87,0,0,1-.31,1.68,3.63,3.63,0,0,1-.88,1.37,4,4,0,0,1-1.52.92,6.52,6.52,0,0,1-2.24.31c-.28,0-.6,0-1,0s-.73-.08-1.11-.15a8.23,8.23,0,0,1-1.15-.32A5.81,5.81,0,0,1,216,39.11Z"/><path d="M227.66,40.05l.26-15.83,2.8,0,3.94,12.68h.11l4.32-12.54,2.73,0-.26,15.84-2.13,0,.21-12.65-.08,0-4.25,12.57-1.65,0-3.85-12.72h-.12l-.21,12.65Z"/><path d="M244,39.57l0-2.21a6.91,6.91,0,0,0,2.16,1,8.27,8.27,0,0,0,2,.32,5.37,5.37,0,0,0,1.08-.09,2,2,0,0,0,.89-.37,2,2,0,0,0,.59-.74,2.74,2.74,0,0,0,.23-1.19,2.05,2.05,0,0,0-.24-1.08,2.43,2.43,0,0,0-.68-.79,5.51,5.51,0,0,0-1-.63l-1.22-.59a12.23,12.23,0,0,1-1.44-.79,5.19,5.19,0,0,1-1.15-1,4.14,4.14,0,0,1-.75-1.27,4.74,4.74,0,0,1-.26-1.73,4.26,4.26,0,0,1,.48-2A3.7,3.7,0,0,1,246,25.21a4.69,4.69,0,0,1,1.64-.67,8.12,8.12,0,0,1,1.85-.18,13,13,0,0,1,1.9.17,3.94,3.94,0,0,1,1.42.46l0,2a4.37,4.37,0,0,0-1.41-.56,8.17,8.17,0,0,0-1.82-.22,4.53,4.53,0,0,0-1,.09,2.78,2.78,0,0,0-1,.35,2,2,0,0,0-.7.7,2.29,2.29,0,0,0-.28,1.14,2.26,2.26,0,0,0,.22,1.05,2.77,2.77,0,0,0,.6.77,4.79,4.79,0,0,0,.87.61c.34.19.69.37,1.05.55q.8.39,1.53.81a5.75,5.75,0,0,1,1.28,1,3.93,3.93,0,0,1,.87,1.28,4.24,4.24,0,0,1,.3,1.76A5.11,5.11,0,0,1,253,38a3.88,3.88,0,0,1-.88,1.37,4.1,4.1,0,0,1-1.52.92,6.58,6.58,0,0,1-2.25.31c-.28,0-.6,0-1-.05s-.72-.08-1.11-.15a8.23,8.23,0,0,1-1.15-.32A6.12,6.12,0,0,1,244,39.57Z"/></g></g><circle cx="147.18" cy="216.35" r="88.67" fill="#01cbfd"/><path d="M173.78,267.91a4.13,4.13,0,0,1-1.11-.15.87.87,0,0,1-.6-.86c.09-.54.88-.91.69-1.42s-.87-.32-1.31-.55a.92.92,0,0,1-.45-.76l-3.43,4.51a.49.49,0,0,0,.39.78l6.88-.07a2,2,0,0,0,.39-.67C175.44,268,174.28,268,173.78,267.91Z" fill="none" stroke="#fff" stroke-miterlimit="10" stroke-width="2.87"/><path d="M184.06,248.16l-13.06,16a.92.92,0,0,0,.45.76c.44.23,1.14.09,1.31.55s-.6.88-.69,1.42a.87.87,0,0,0,.6.86,4.13,4.13,0,0,0,1.11.15c.5,0,1.66.06,1.45.81a2,2,0,0,1-.39.67l19.44-.9Z" fill="none" stroke="#fff" stroke-miterlimit="10" stroke-width="2.87"/><polygon points="184.1 256.31 184.06 248.16 278.34 200.76 281.62 207.29 184.1 256.31" fill="none" stroke="#fff" stroke-miterlimit="10" stroke-width="2.87"/><polygon points="187.8 263.69 188.54 258.63 184.04 256.2 281.56 207.17 285.33 214.66 187.8 263.69" fill="none" stroke="#fff" stroke-miterlimit="10" stroke-width="2.87"/><polygon points="194.28 268.49 187.8 263.69 285.33 214.66 288.56 221.09 194.28 268.49" fill="none" stroke="#fff" stroke-miterlimit="10" stroke-width="2.87"/><path d="M300.83,194.83a4.81,4.81,0,0,0-6.45-2.13l-8.91,4.48,3.34,6.64,13.2-6.64Z" fill="none" stroke="#fff" stroke-miterlimit="10" stroke-width="2.87"/><path d="M306.72,206.56l-1-2-13.2,6.64,3.18,6.32,8.91-4.47A4.8,4.8,0,0,0,306.72,206.56Z" fill="none" stroke="#fff" stroke-miterlimit="10" stroke-width="2.87"/><rect x="289.86" y="200.06" width="14.77" height="8.21" transform="translate(-60.03 155.27) rotate(-26.69)" fill="none" stroke="#fff" stroke-miterlimit="10" stroke-width="2.87"/><polygon points="288.78 203.76 281.62 207.29 285.35 214.7 292.49 211.14 288.78 203.76" fill="none" stroke="#fff" stroke-miterlimit="10" stroke-width="2.87"/><polygon points="285.47 197.18 278.34 200.76 281.62 207.29 288.78 203.76 285.47 197.18" fill="none" stroke="#fff" stroke-miterlimit="10" stroke-width="2.87"/><polygon points="295.68 217.49 292.49 211.14 285.35 214.7 288.55 221.07 295.68 217.49" fill="none" stroke="#fff" stroke-miterlimit="10" stroke-width="2.87"/><rect x="20.48" y="67.68" width="147.38" height="167.94" rx="7.52" transform="translate(51.77 -21.75) rotate(18.1)" fill="#fff"/><g id="check-lines"><rect x="50.84" y="201.84" width="71.91" height="5.05" transform="translate(67.78 -16.85) rotate(18.1)" fill="#1f2229"/><rect x="54.28" y="188.7" width="39.26" height="5.05" transform="translate(63.07 -13.5) rotate(18.1)" fill="#1f2229"/><rect x="61.22" y="170.08" width="71.91" height="5.05" transform="translate(58.43 -21.65) rotate(18.1)" fill="#1f2229"/><rect x="64.66" y="156.94" width="39.26" height="5.05" transform="matrix(0.95, 0.31, -0.31, 0.95, 53.71, -18.3)" fill="#1f2229"/><rect x="71.6" y="138.32" width="71.91" height="5.05" transform="matrix(0.95, 0.31, -0.31, 0.95, 49.08, -26.44)" fill="#1f2229"/><rect x="75.04" y="125.18" width="39.26" height="5.05" transform="translate(44.36 -23.09) rotate(18.1)" fill="#1f2229"/><rect x="81.98" y="106.56" width="71.91" height="5.05" transform="translate(39.72 -31.24) rotate(18.1)" fill="#1f2229"/><rect x="85.42" y="93.42" width="39.26" height="5.05" transform="translate(35.01 -27.89) rotate(18.1)" fill="#1f2229"/></g></g></g></g></svg>